IKResults
version=1
nRows=10
nColumns=63
inDegrees=yes

Units are S.I. units (second, meters, Newtons, ...)
If the header above contains a line with 'inDegrees', this indicates whether rotational values are in degrees (yes) or radians (no).

endheader
time	pelvis_tilt	pelvis_list	pelvis_rotation	pelvis_tx	pelvis_ty	pelvis_tz	hip_flexion_r	hip_adduction_r	hip_rotation_r	knee_angle_r	knee_angle_r_beta	ankle_angle_r	subtalar_angle_r	mtp_angle_r	hip_flexion_l	hip_adduction_l	hip_rotation_l	knee_angle_l	knee_angle_l_beta	ankle_angle_l	subtalar_angle_l	mtp_angle_l	L5_S1_Flex_Ext	L5_S1_Lat_Bending	L5_S1_axial_rotation	L4_L5_Flex_Ext	L4_L5_Lat_Bending	L4_L5_axial_rotation	L3_L4_Flex_Ext	L3_L4_Lat_Bending	L3_L4_axial_rotation	L2_L3_Flex_Ext	L2_L3_Lat_Bending	L2_L3_axial_rotation	L1_L2_Flex_Ext	L1_L2_Lat_Bending	L1_L2_axial_rotation	L1_T12_Flex_Ext	L1_T12_Lat_Bending	L1_T12_axial_rotation	Abs_r3	Abs_r2	Abs_r1	Abs_t1	Abs_t2	neck_flexion	neck_bending	neck_rotation	arm_flex_r	arm_add_r	arm_rot_r	elbow_flex_r	pro_sup_r	wrist_flex_r	wrist_dev_r	arm_flex_l	arm_add_l	arm_rot_l	elbow_flex_l	pro_sup_l	wrist_flex_l	wrist_dev_l
      6.03333333	   -271.26454465	    -51.09956471	      4.98740432	     -0.24105224	      0.17393213	     -0.92488101	      7.95432338	    -12.16788114	    -11.26482290	     16.12172054	      0.28137710	      0.00000000	      0.00000000	      0.00000000	     12.29824782	    -24.40846871	    -38.52218118	     22.66319772	      0.39554742	      0.00000000	      0.00000000	      0.00000000	     -0.08301866	      0.73290147	      2.43208850	     -0.15417395	      0.97475896	      2.58409403	     -0.13639136	      1.78197664	      2.58409403	     -0.09488203	      1.78197664	      2.12807743	     -0.07709113	      1.49453268	      1.97607190	     -0.04743686	      1.13526438	      1.82406637	     -0.59299399	      8.29072802	     13.52654659	      0.00000000	      0.00000000	     -2.56853340	      9.87913614	    -15.16720076	    -92.54715625	    -55.58114144	   -122.81158024	     40.67835921	     89.99559364	      0.00000000	      0.00000000	     34.25508469	    -70.61553448	      9.94900305	     22.77666230	     89.99559364	      0.00000000	      0.00000000
      6.06666667	   -271.44830064	    -51.17222053	      4.61820735	     -0.24124691	      0.17395807	     -0.92475190	      8.18011968	    -12.05415483	    -10.97323410	     16.06981090	      0.28047111	      0.00000000	      0.00000000	      0.00000000	     12.36158564	    -24.45950353	    -38.59617789	     22.55711511	      0.39369593	      0.00000000	      0.00000000	      0.00000000	     -0.05495416	      0.73261607	      2.47695601	     -0.10205537	      0.97437937	      2.63176576	     -0.09028419	      1.78128271	      2.63176576	     -0.06280711	      1.78128271	      2.16733651	     -0.05103043	      1.49395069	      2.01252676	     -0.03140081	      1.13482229	      1.85771701	     -0.39253205	      8.28749949	     13.77608622	      0.00000000	      0.00000000	     -2.63388006	     10.07581040	    -15.47458311	    -89.34875002	    -56.50605470	   -126.14676152	     40.17187499	     89.99559364	      0.00000000	      0.00000000	     34.75529302	    -70.11891732	      9.23688924	     22.03531201	     89.99559364	      0.00000000	      0.00000000
      6.10000000	   -271.32827004	    -51.19950269	      4.55802643	     -0.24156113	      0.17399075	     -0.92492539	      8.14341482	    -11.96899431	    -10.57915587	     15.97505390	      0.27881729	      0.00000000	      0.00000000	      0.00000000	     12.21924461	    -24.45339447	    -38.60706148	     22.38360655	      0.39066763	      0.00000000	      0.00000000	      0.00000000	     -0.06768270	      0.73045461	      2.43397018	     -0.12569354	      0.97150463	      2.58609331	     -0.11119590	      1.77602734	      2.58609331	     -0.07735456	      1.77602734	      2.12972390	     -0.06285015	      1.48954304	      1.97760077	     -0.03867389	      1.13147419	      1.82547763	     -0.48345074	      8.26304865	     13.53701192	      0.00000000	      0.00000000	     -2.63409647	     10.39665786	    -15.40641771	    -86.25096653	    -57.87963642	   -128.90503619	     40.00708416	     89.99559364	      0.00000000	      0.00000000	     31.92889141	    -68.74435189	     -6.87338809	     22.75134189	     89.99559364	      0.00000000	      0.00000000
      6.13333333	   -271.38565243	    -51.34614567	      4.31422745	     -0.24138888	      0.17438801	     -0.92480228	      8.18385496	    -11.82457125	    -10.58508819	     15.83954614	      0.27645223	      0.00000000	      0.00000000	      0.00000000	     12.16740579	    -24.60407613	    -38.65190704	     22.28610128	      0.38896584	      0.00000000	      0.00000000	      0.00000000	     -0.04731602	      0.74543693	      2.47565439	     -0.08787058	      0.99143111	      2.63038279	     -0.07773549	      1.81245535	      2.63038279	     -0.05407748	      1.81245535	      2.16619759	     -0.04393766	      1.52009498	      2.01146919	     -0.02703637	      1.15468180	      1.85674079	     -0.33797360	      8.43253162	     13.76884703	      0.00000000	      0.00000000	     -2.60441860	     10.62178430	    -15.58203792	    -85.23609483	    -58.30296600	   -130.22333274	     39.66241632	     89.99559364	      0.00000000	      0.00000000	     32.10654472	    -68.42978534	     -7.06285164	     22.61887166	     89.99559364	      0.00000000	      0.00000000
      6.16666667	   -271.35261127	    -51.31256434	      4.27753660	     -0.24117399	      0.17453754	     -0.92480250	      8.18824471	    -11.88274480	    -10.45690672	     15.89071419	      0.27734528	      0.00000000	      0.00000000	      0.00000000	     12.14691684	    -24.54399847	    -38.63543836	     22.28152385	      0.38888595	      0.00000000	      0.00000000	      0.00000000	     -0.04460052	      0.73881403	      2.46720787	     -0.08282762	      0.98262265	      2.62140836	     -0.07327419	      1.79635242	      2.62140836	     -0.05097393	      1.79635242	      2.15880689	     -0.04141604	      1.50658956	      2.00460639	     -0.02548474	      1.14442292	      1.85040590	     -0.31857705	      8.35761201	     13.72187001	      0.00000000	      0.00000000	     -2.71331138	     10.68166751	    -15.64617697	    -82.93409044	    -59.21596535	   -132.65474875	     39.43722221	     89.99559364	      0.00000000	      0.00000000	     32.23311757	    -68.32199460	     -7.77834873	     22.25512732	     89.99559364	      0.00000000	      0.00000000
      6.20000000	   -271.32714193	    -51.31997876	      4.26787645	     -0.24069728	      0.17510703	     -0.92466970	      8.13514402	    -11.90517616	    -10.44987006	     15.89753939	      0.27746441	      0.00000000	      0.00000000	      0.00000000	     12.10889977	    -24.54535234	    -38.59830895	     22.28712755	      0.38898376	      0.00000000	      0.00000000	      0.00000000	     -0.03666479	      0.73990325	      2.46874507	     -0.06809018	      0.98407132	      2.62304163	     -0.06023658	      1.79900076	      2.62304163	     -0.04190418	      1.79900076	      2.16015193	     -0.03404692	      1.50881071	      2.00585537	     -0.02095026	      1.14611014	      1.85155880	     -0.26189291	      8.36993355	     13.73041943	      0.00000000	      0.00000000	     -2.71376418	     10.69966149	    -15.65386667	    -82.91773246	    -59.26912194	   -132.67971566	     39.45102374	     89.99559364	      0.00000000	      0.00000000	     32.22189084	    -68.32422534	     -7.79708789	     22.25612653	     89.99559364	      0.00000000	      0.00000000
      6.23333333	   -271.01772995	    -51.34310700	      4.45367644	     -0.24042367	      0.17530914	     -0.92497705	      7.90599988	    -11.89044777	    -10.31396542	     15.85893105	      0.27679056	      0.00000000	      0.00000000	      0.00000000	     11.89101309	    -24.56346696	    -38.61833485	     22.27812233	      0.38882659	      0.00000000	      0.00000000	      0.00000000	     -0.06932516	      0.74826770	      2.34643527	     -0.12874376	      0.99519604	      2.49308747	     -0.11389431	      1.81933808	      2.49308747	     -0.07923173	      1.81933808	      2.05313086	     -0.06437535	      1.52586748	      1.90647865	     -0.03961240	      1.15906666	      1.75982645	     -0.49518271	      8.46455383	     13.05016902	      0.00000000	      0.00000000	     -2.86127443	     10.74031024	    -14.98766415	    -81.25038612	    -61.01116585	   -134.70611272	     39.00121860	     89.99559364	      0.00000000	      0.00000000	     29.07446287	    -67.77543735	    -20.20515572	     23.38968052	     89.99559364	      0.00000000	      0.00000000
      6.26666667	   -270.99696997	    -51.33696205	      4.43043719	     -0.24004652	      0.17585519	     -0.92474906	      7.84718728	    -11.91241412	    -10.29907139	     15.85902749	      0.27679225	      0.00000000	      0.00000000	      0.00000000	     11.84640533	    -24.56369619	    -38.60098659	     22.29411720	      0.38910575	      0.00000000	      0.00000000	      0.00000000	     -0.06195864	      0.74735687	      2.34674915	     -0.11506340	      0.99398464	      2.49342097	     -0.10179186	      1.81712350	      2.49342097	     -0.07081254	      1.81712350	      2.05340551	     -0.05753480	      1.52401013	      1.90673368	     -0.03540317	      1.15765580	      1.76006186	     -0.44256440	      8.45425042	     13.05191475	      0.00000000	      0.00000000	     -2.81999414	     10.76220294	    -15.00647894	    -81.36151630	    -61.05344010	   -134.76510738	     39.02888139	     89.99559364	      0.00000000	      0.00000000	     29.06248178	    -67.91373049	    -20.22701208	     23.38153762	     89.99559364	      0.00000000	      0.00000000
      6.30000000	   -270.95868469	    -51.32690807	      4.37405233	     -0.23973732	      0.17617222	     -0.92450956	      7.80405836	    -11.93619567	    -10.24295433	     15.85637443	      0.27674594	      0.00000000	      0.00000000	      0.00000000	     11.79514959	    -24.58879799	    -38.62251919	     22.38173871	      0.39063503	      0.00000000	      0.00000000	      0.00000000	     -0.06299991	      0.74827561	      2.34572526	     -0.11699714	      0.99520656	      2.49233309	     -0.10350256	      1.81935732	      2.49233309	     -0.07200260	      1.81935732	      2.05250960	     -0.05850172	      1.52588363	      1.90590178	     -0.03599815	      1.15907892	      1.75929395	     -0.45000209	      8.46464337	     13.04622019	      0.00000000	      0.00000000	     -2.56658475	     10.75941244	    -14.95963194	    -81.84850134	    -61.13472189	   -134.73678708	     38.93211256	     89.99559364	      0.00000000	      0.00000000	     28.78038740	    -68.09380043	    -20.25859667	     23.30888200	     89.99559364	      0.00000000	      0.00000000
      6.33333333	   -270.83601699	    -51.49042909	      4.41100150	     -0.23925100	      0.17644638	     -0.92448351	      7.71549318	    -11.76898403	    -10.04630445	     15.87823299	      0.27712745	      0.00000000	      0.00000000	      0.00000000	     11.73686426	    -24.80550650	    -38.63668701	     22.51307756	      0.39292733	      0.00000000	      0.00000000	      0.00000000	     -0.06870008	      0.77848636	      2.30756065	     -0.12758292	      1.03538685	      2.45178319	     -0.11286736	      1.89281173	      2.45178319	     -0.07851732	      1.89281173	      2.01911557	     -0.06379489	      1.58748938	      1.87489303	     -0.03925523	      1.20587537	      1.73067049	     -0.49071780	      8.80639336	     12.83396006	      0.00000000	      0.00000000	     -2.33048332	     10.54875616	    -14.44150559	    -84.31770684	    -61.18551996	   -133.59178684	     38.47903386	     89.99559364	      0.00000000	      0.00000000	     27.35265483	    -68.35078345	    -20.30704590	     23.36033882	     89.99559364	      0.00000000	      0.00000000
